PathFileType	4	(X/Y/Z)	0_1_26_p0_0-249.trc
DataRate	CameraRate	NumFrames	NumMarkers	Units	OrigDataRate	OrigDataStartFrame	OrigNumFrames
60	60	4	27	m	60	0	249
Frame#	Time	RHip			RKnee			RAnkle			RBigToe			RSmallToe			RHeel			LHip			LKnee			LAnkle			LBigToe			LSmallToe			LHeel			Neck			Head			Nose			RShoulder			RElbow			RWrist			RThumb			RIndex			RPinky			LShoulder			LElbow			LWrist			LThumb			LIndex			LPinky		
		X1	Y1	Z1	X2	Y2	Z2	X3	Y3	Z3	X4	Y4	Z4	X5	Y5	Z5	X6	Y6	Z6	X7	Y7	Z7	X8	Y8	Z8	X9	Y9	Z9	X10	Y10	Z10	X11	Y11	Z11	X12	Y12	Z12	X13	Y13	Z13	X14	Y14	Z14	X15	Y15	Z15	X16	Y16	Z16	X17	Y17	Z17	X18	Y18	Z18	X19	Y19	Z19	X20	Y20	Z20	X21	Y21	Z21	X22	Y22	Z22	X23	Y23	Z23	X24	Y24	Z24	X25	Y25	Z25	X26	Y26	Z26	X27	Y27	Z27
1	0.016666666666666666	0.12135073872380878	0.20398113688745326	0.02413783172731665	0.13585208824002393	0.2536863984894781	-0.43278182320546016	0.15554110097086085	0.2021159067298782	-0.7915131620797663	0.1777008968818359	0.06357510349527101	-0.7884217903020655	0.10526985971070583	0.07990321481463956	-0.7957679344875651	0.17327675003042	0.2363428260604608	-0.8395691860168732	0.33496803298197236	0.19446456117512695	0.02643160299333888	0.3320516498760266	0.18880154566492618	-0.39454904031365684	0.34216263724819634	0.2256009347733452	-0.8191399381876951	0.32302169113131807	0.07378209837085196	-0.7946007552514307	0.37454462421592716	0.12304552567137592	-0.8136348924135816	0.33408770926531167	0.2737615044469596	-0.8745590655505523	0.20942368940573003	0.2779591500062518	0.5322138905037536	0.18305355681522947	0.21930174899665586	0.7920558480639627	0.18437100491678554	0.15447822756514265	0.6607619631371537	0.05383667941139876	0.26138452947815494	0.4804027348621132	0.012302507403096376	0.21912935829021327	0.22848519025377625	0.14092485424623263	0.06918976096242527	0.06897071923622472	0.22523568332063357	0.032239309386705904	0.03983472162097697	0.23214503305896508	0.06636353402229252	-0.008768735011245322	0.20404480075872705	0.053956205541404505	-0.01492302323558675	0.3546645794707387	0.24544154764469042	0.4786916129814113	0.41944681695254704	0.24737954071986162	0.21934934955410412	0.30157264018620983	0.07660209759761563	0.10195817287234539	0.22947473483792574	0.02455433066881185	0.07491831242056281	0.21947138900367036	0.008525695783975652	0.047119377192767944	0.23806464015136072	0.05620160799481583	0.005162353483514294
2	0.03333333333333333	0.12144780855054563	0.2037345270511759	0.023862146891469236	0.13579803691884754	0.25343343185220246	-0.43265660455295746	0.15988546005260756	0.20010435386547626	-0.790262372382379	0.17304692282440318	0.06571186005508402	-0.7898171275455533	0.10526150875968057	0.07979149578389763	-0.7956694514506706	0.16803865471155233	0.22144292997776094	-0.8283946150899334	0.3354459853358497	0.19320862352179038	0.022542981089758662	0.33214566411922497	0.18879853750600378	-0.3946406798069987	0.34218199979596764	0.2255928790183749	-0.819089538498748	0.32310202453500236	0.07399548561897432	-0.7947939455509705	0.3745878005863469	0.12328799922995326	-0.8137706999444732	0.333968789188756	0.2735817422824713	-0.874377424622649	0.2094961400951499	0.27796126562442613	0.5322381034256151	0.18178588916777164	0.21009698873663815	0.7931906993828822	0.18436146747897084	0.15462761546181655	0.6607822187079349	0.04982153785996034	0.24836717935964162	0.48383389091517787	0.01228980275361047	0.21907525208073508	0.22850041603820107	0.1410706772889461	0.07018987554451984	0.0726643482314875	0.2186789151528157	0.010443386034394556	0.045719942943640395	0.2319862884215299	0.06595320619702195	-0.00837983967583138	0.2039617749347911	0.052980886316661334	-0.014495952996570336	0.3600161835039584	0.2578143786788278	0.47535887768934976	0.4192253422127966	0.24754593928502824	0.21915052103599553	0.296031073093037	0.06576496499545073	0.10229378181788372	0.22427398172668928	0.012032068228071699	0.07675292907886667	0.21937464614144922	0.008067851857126686	0.04712106687867964	0.23870496797704843	0.05502480749684826	0.006069550376051056
3	0.05	0.1214775527132384	0.20374296341922532	0.02386328544221399	0.1358313794376347	0.2534852402012419	-0.43269235642887427	0.15989478008368352	0.2000122412902473	-0.7902205838011666	0.17785190427031436	0.06339169231304172	-0.788176083229444	0.10543165829538517	0.07972944851792356	-0.7955669391556136	0.16793465968522595	0.22132703674248647	-0.8284803133615508	0.33500828157335805	0.19419514472101862	0.026306668603715336	0.3263700193875695	0.17548378990521155	-0.3867409990812282	0.3420998473768165	0.22539355259695557	-0.8189650077037646	0.32306869700510005	0.0739802424205203	-0.7947247900293014	0.37455064664418036	0.12330286441563497	-0.8137312105288976	0.33397372132327363	0.2734628388011498	-0.8743140385399427	0.20951569832351416	0.27791156205434	0.5322440711182022	0.17921813165600728	0.2210338023733061	0.7916711879488296	0.1843735558395316	0.15474803261546136	0.6607866829500133	0.05393132590173086	0.26119800235306995	0.4804757788042269	0.012157672728980223	0.21798575252648905	0.22499846306803797	0.14086242923648842	0.06889777716050371	0.06904758310285783	0.2206046732338793	0.03334156789174364	0.031941242273339915	0.23203725920474044	0.0663075333243504	-0.008249163751100179	0.20418110622678376	0.05252326446390714	-0.01398449933075106	0.3601072280106258	0.2587272086546109	0.4790048474217295	0.41904257131416545	0.24847527071975575	0.2153066209813671	0.2962121274632469	0.06608946665323967	0.10214143594974273	0.22876938663192264	0.024359738896882747	0.06778564745579149	0.21932599691359894	0.008853044302347408	0.04662856580083373	0.23787888404113536	0.05709890292941883	0.004802738238698818
4	0.06666666666666667	0.12184341230336766	0.20273087798530848	0.02012375585617046	0.13664482528178884	0.25267093087343984	-0.4370058044662283	0.1599330329438039	0.20000579008365457	-0.7900724320424822	0.17790057053075842	0.06342002635538399	-0.7880968796754463	0.10546067922585352	0.07979671892798064	-0.7954342931329048	0.16791848674266416	0.22157816633213745	-0.828416328344952	0.3351595933697341	0.19381530630720425	0.01839566664674616	0.33209420178847265	0.18866850961207374	-0.39472955906834867	0.3466548854059265	0.22274393091357494	-0.8172202622945121	0.324140401911211	0.07305877568406766	-0.7989405566677654	0.3755245881852757	0.12260151557503682	-0.8175639436058605	0.33394715819081383	0.27316551803979305	-0.8740944202566869	0.2094987010100444	0.2778508982638545	0.5322217150678563	0.1855645604517395	0.20860844230455663	0.790072538655614	0.18427963459013824	0.15476083835945031	0.6608421475776439	0.05396563569229471	0.2613325178584379	0.4805384976842105	0.012226461352999936	0.2180246554551481	0.22496606899328997	0.14089510408614697	0.06914831690192114	0.06877186749091016	0.2244912698567691	0.031114582111284355	0.032737517224847475	0.2320985781720169	0.06608627305926458	-0.008095665836516604	0.20931277242497445	0.06438719136608627	-0.019259981365759446	0.3600279341235738	0.25783016637300094	0.4753600158074726	0.41905397589204685	0.2485316802199812	0.21528994086502645	0.2962493957283363	0.06593965272049827	0.10203164326769217	0.22893085826606052	0.023952625272882937	0.06780570910654886	0.22328936213683206	0.006720345828278786	0.04747163698434548	0.23844222528364414	0.056293693572163774	0.0017237777945805224
